<?xml version="1.0" encoding="utf-8"?>
<!-- Generator: Adobe Illustrator 19.0.0, SVG Export Plug-In . SVG Version: 6.00 Build 0)  -->
<svg version="1.1" id="Capa_1" xmlns="http://www.w3.org/2000/svg" xmlns:xlink="http://www.w3.org/1999/xlink" x="0px" y="0px"
	 width="609px" height="196.5px" viewBox="-91 208.5 609 196.5" enable-background="new -91 208.5 609 196.5" xml:space="preserve">
<g id="isotipo">
	<polygon id="XMLID_111_" fill="#FFFFFF" points="-48,253.1 -74.1,359 -38.2,384.6 10.2,359 -7.3,347.1 -32.1,359.9 -51.9,346.3 
		-31.6,264 	">
		<animateTransform id="jc"
						attributeName="transform"
						atribueType="XML"
						type="translate"
						values="0,0;-2,6;0,0"
						dur="1s" 
						begin="4s"
						repeatCount="2"/>
</polygon>
	<polygon id="XMLID_110_" fill="#FFFFFF" points="14.3,353.4 40.4,247.6 4.5,222 -43.8,247.6 -26.4,259.5 -1.6,246.6 18.2,260.2 
		-2.1,342.5 	">
		<animateTransform id="jc"
						attributeName="transform"
						atribueType="XML"
						type="translate"
						values="0,0;2,-6;0,0"
						dur="1s"
						begin="4s"
						repeatCount="2"/>
</polygon>
	<polygon id="XMLID_109_" fill="#FFFFFF" points="-31,282.6 -7.7,270.4 9.7,282.6 3.6,307.2 	">
		<animateTransform id="jc"
						attributeName="transform"
						atribueType="XML"
						type="translate"
						values="0,0;2,-6;0,0"
						dur="2s"
						repeatCount="indefinite"/>
</polygon>
	<polygon id="XMLID_108_" fill="#FFFFFF" points="-0.7,318.5 -24,330.6 -41.4,318.5 -35.3,293.9 	">
		<animateTransform id="jc"
						attributeName="transform"
						atribueType="XML"
						type="translate"
						values="0,0;-2,6;0,0"
						dur="2s"
						begin=".2"
						repeatCount="indefinite"/>
</polygon>
</g>
<g id="slogan">
	<path id="XMLID_104_" fill="#FFFFFF" stroke="#FFFFFF" stroke-width="0.85" stroke-miterlimit="10" d="M37.2,357.8
		c0.8-3.6,2.2-8.1,6.4-8.1c4.6,0,3.4,5.5,2.9,8.1c-1.4,6.7-3.8,8.1-6.3,8.1C37.6,366,35.8,364.5,37.2,357.8z M40.3,365.1
		c2.1,0,3.8-1.6,5-7.3c1.2-5.8,0-7.3-2-7.3c-2.3,0-4,1.9-5.1,7.3C37,363.7,38.4,365.1,40.3,365.1z"/>
	<path id="XMLID_101_" fill="#FFFFFF" stroke="#FFFFFF" stroke-width="0.85" stroke-miterlimit="10" d="M52.6,358.2
		c0.3-1.4,0.5-2.8,0.4-4.1l1-0.1v1.9l0,0c0.8-1.2,2.1-1.9,3.4-1.9c1.9,0,4.1,1.5,3.2,6.1c-1,4.6-4.2,5.9-5.8,5.9c-1,0-2-0.3-2.6-1
		l-1.1,5.3h-1L52.6,358.2z M52.4,363.9c0.6,0.6,1.3,1.1,2.3,1.1c1.3,0,4-0.9,4.8-5.1c0.8-4-1.1-5.1-2.4-5.1c-1.5,0-2.5,1.1-3.3,2.3
		L52.4,363.9z"/>
	<path id="XMLID_98_" fill="#FFFFFF" stroke="#FFFFFF" stroke-width="0.85" stroke-miterlimit="10" d="M73.8,364.9
		c-1.5,0.6-2.8,1-4.3,1c-3.4,0-4-3-3.3-5.9c0.6-2.9,2.6-6,6-6c1.9,0,3.9,1.4,2.9,6.2h-7.9c-0.7,4,0.8,5,2.6,5c1.3,0,2.7-0.5,3.9-1.1
		L73.8,364.9z M74.1,359.2c0.5-2-0.1-4.4-2.4-4.4c-2.2,0-4.1,2.4-4.5,4.4H74.1z"/>
	<path id="XMLID_96_" fill="#FFFFFF" stroke="#FFFFFF" stroke-width="0.85" stroke-miterlimit="10" d="M81,365.7h-1l1.2-5.8
		c0.4-2,0.8-3.9,0.8-5.9h1l-0.3,3.3l0,0c0.8-1.7,3-3.4,4.8-3.4c2.1,0,2.3,1.8,1.9,3.5l-1.7,8.2h-1l1.6-7.7c0.3-1.3,0.7-3.2-1.1-3.2
		c-1.7,0-4.3,1.7-5.2,6.1L81,365.7z"/>
	<path id="XMLID_93_" fill="#FFFFFF" stroke="#FFFFFF" stroke-width="0.85" stroke-miterlimit="10" d="M115.7,365.9
		c-0.1-0.6-0.1-1.3,0-2c-1,1.2-2.1,2-3.6,2c-2.1,0-2.8-1.7-2.4-3.7c0.5-2.2,2.1-4.1,4.3-4.1c0.9,0,1.9,0.4,2.7,0.8
		c0.7-2.9,0.4-4.1-1.5-4.1c-1,0-1.9,0.3-2.9,0.8v-0.9c1.1-0.4,2.1-0.7,3.2-0.7c2.1,0,3,1.5,2.4,4c-0.4,1.6-0.7,3.1-1.1,4.7
		c-0.3,1.1-0.2,2.2-0.1,3.1L115.7,365.9z M116.4,359.7c-0.6-0.4-1.4-0.7-2.3-0.7c-1.9,0-3,1.6-3.4,3.3c-0.3,1.3,0.1,2.7,1.6,2.7
		c1.4,0,2.5-1.2,3.5-2.3L116.4,359.7z"/>
	<path id="XMLID_91_" fill="#FFFFFF" stroke="#FFFFFF" stroke-width="0.85" stroke-miterlimit="10" d="M124.7,365.7h-1l1.2-5.8
		c0.4-2,0.8-3.9,0.8-5.9h1l-0.3,3.3l0,0c0.8-1.7,3-3.4,4.8-3.4c2.1,0,2.3,1.8,1.9,3.5l-1.7,8.2h-1l1.6-7.7c0.3-1.3,0.7-3.2-1.1-3.2
		c-1.7,0-4.3,1.7-5.2,6.1L124.7,365.7z"/>
	<path id="XMLID_88_" fill="#FFFFFF" stroke="#FFFFFF" stroke-width="0.85" stroke-miterlimit="10" d="M146.8,361.6
		c-0.3,1.4-0.5,2.8-0.4,4.2l-1,0.1V364c-0.9,1.2-2.1,1.9-3.5,1.9c-1.9,0-4.1-1.6-3.2-6.1c1-4.6,4.2-5.9,5.8-5.9c1,0,2,0.3,2.6,1
		l1.2-5.4h1L146.8,361.6z M147,355.9c-0.6-0.6-1.4-1.1-2.3-1.1c-1.3,0-3.9,0.9-4.8,5.1c-0.8,4,1.1,5.1,2.4,5.1
		c1.5,0,2.6-1.1,3.4-2.3L147,355.9z"/>
	<path id="XMLID_86_" fill="#FFFFFF" stroke="#FFFFFF" stroke-width="0.85" stroke-miterlimit="10" d="M179.5,350.9h-7l-1.3,6.2h5.3
		l-0.2,0.9H171l-1.7,7.7h-1l3.3-15.6h8L179.5,350.9z"/>
	<path id="XMLID_84_" fill="#FFFFFF" stroke="#FFFFFF" stroke-width="0.85" stroke-miterlimit="10" d="M184.1,365.7h-1l1.7-8
		l0.4-3.7h1l-0.3,3.2l0,0c1-1.6,2.6-3.4,4.6-3.4c1.9,0,2,1.9,1.7,3.5h-1c0.2-1.1,0.5-2.6-0.9-2.6c-1.2,0-4.2,1.8-5.1,6.2
		L184.1,365.7z"/>
	<path id="XMLID_81_" fill="#FFFFFF" stroke="#FFFFFF" stroke-width="0.85" stroke-miterlimit="10" d="M205,364.9
		c-1.5,0.6-2.8,1-4.3,1c-3.4,0-4-3-3.3-5.9c0.6-2.9,2.6-6,6-6c1.9,0,3.9,1.4,2.9,6.2h-7.9c-0.7,4,0.8,5,2.6,5c1.3,0,2.7-0.5,3.9-1.1
		L205,364.9z M205.3,359.2c0.5-2-0.1-4.4-2.4-4.4c-2.2,0-4.1,2.4-4.5,4.4H205.3z"/>
	<path id="XMLID_78_" fill="#FFFFFF" stroke="#FFFFFF" stroke-width="0.85" stroke-miterlimit="10" d="M219.5,364.9
		c-1.5,0.6-2.8,1-4.3,1c-3.4,0-4-3-3.3-5.9c0.6-2.9,2.6-6,6-6c1.9,0,3.9,1.4,2.9,6.2h-7.9c-0.7,4,0.8,5,2.6,5c1.3,0,2.7-0.5,3.9-1.1
		L219.5,364.9z M219.9,359.2c0.5-2-0.1-4.4-2.4-4.4c-2.2,0-4.1,2.4-4.5,4.4H219.9z"/>
	<path id="XMLID_76_" fill="#FFFFFF" stroke="#FFFFFF" stroke-width="0.85" stroke-miterlimit="10" d="M250.5,352.2
		c-0.8-0.8-1.7-1.7-3.1-1.7c-1.6,0-3.1,1.1-3.5,2.7c-0.3,1.2,0.1,2,1.8,3.2l1.1,0.8c2.2,1.5,3.1,2.4,2.7,4.3
		c-0.6,2.7-2.7,4.3-5.4,4.3c-1.8,0-3.1-0.9-3.9-2.3l0.9-0.6c0.6,1.2,1.7,2.1,3.2,2.1c1.8,0,3.6-1.3,4-3.2c0.3-1.5,0.3-2-2.3-3.8
		l-1.3-0.9c-1.3-0.9-2.4-1.9-2-3.8c0.5-2.3,2.6-3.7,4.8-3.7c1.5,0,2.7,0.8,3.6,1.8L250.5,352.2z"/>
	<path id="XMLID_73_" fill="#FFFFFF" stroke="#FFFFFF" stroke-width="0.85" stroke-miterlimit="10" d="M255.8,359.9
		c1-4.5,3.6-6,5.7-6c1.9,0,4.1,1.3,3.1,6s-3.7,6-5.7,6S254.8,364.6,255.8,359.9z M263.5,359.9c0.5-2.2,0.5-5.1-2.3-5.1
		s-4,2.9-4.5,5.1c-0.5,2.3-0.5,5.1,2.3,5.1C261.9,365,263.1,362.1,263.5,359.9z"/>
	<path id="XMLID_71_" fill="#FFFFFF" stroke="#FFFFFF" stroke-width="0.85" stroke-miterlimit="10" d="M281.3,351.5
		c-1-0.5-1.5-0.9-2.5-0.9c-1.5,0-2.6,0.8-2.9,2.3l-0.4,2h3.8l-0.2,0.9h-3.8l-2.1,9.8h-1l2.1-9.8h-3l0.2-0.9h3l0.3-1.3
		c0.7-3,2.5-3.9,4.2-3.9c1,0,1.9,0.3,2.7,0.7L281.3,351.5z"/>
	<path id="XMLID_69_" fill="#FFFFFF" stroke="#FFFFFF" stroke-width="0.85" stroke-miterlimit="10" d="M293.5,355h-4.2l-1.7,7.8
		c-0.2,1.1,0,2.2,1.4,2.2c1.3,0,2.4-1,3.1-2l0.9,0.2c-1,1.5-2.5,2.7-4.3,2.7c-1.5,0-2.7-0.7-2-3.6l1.5-7.2h-2.6l0.2-0.9h2.6l0.8-3.7
		h1l-0.8,3.7h4.2L293.5,355z"/>
	<path id="XMLID_67_" fill="#FFFFFF" stroke="#FFFFFF" stroke-width="0.85" stroke-miterlimit="10" d="M299.5,354.2h1.1l-0.5,9.9
		l0,0l3.5-7h1.1l0.5,7l0,0l3.7-9.9h1.1l-4.5,11.7h-1.1l-0.6-7.4l-3.7,7.4H299L299.5,354.2z"/>
	<path id="XMLID_64_" fill="#FFFFFF" stroke="#FFFFFF" stroke-width="0.85" stroke-miterlimit="10" d="M319.7,365.9
		c-0.1-0.6-0.1-1.3,0-2c-1,1.2-2.1,2-3.6,2c-2.1,0-2.8-1.7-2.4-3.7c0.5-2.2,2.1-4.1,4.3-4.1c0.9,0,1.9,0.4,2.7,0.8
		c0.7-2.9,0.4-4.1-1.5-4.1c-1,0-1.9,0.3-2.9,0.8v-0.9c1.1-0.4,2.1-0.7,3.2-0.7c2.1,0,3,1.5,2.4,4c-0.4,1.6-0.7,3.1-1.1,4.7
		c-0.3,1.1-0.2,2.2-0.1,3.1L319.7,365.9z M320.4,359.7c-0.6-0.4-1.4-0.7-2.3-0.7c-1.9,0-3,1.6-3.4,3.3c-0.3,1.3,0.1,2.7,1.6,2.7
		c1.4,0,2.5-1.2,3.5-2.3L320.4,359.7z"/>
	<path id="XMLID_62_" fill="#FFFFFF" stroke="#FFFFFF" stroke-width="0.85" stroke-miterlimit="10" d="M329.8,365.7h-1l1.7-8
		l0.4-3.7h1l-0.3,3.2l0,0c1-1.6,2.6-3.4,4.6-3.4c1.9,0,2,1.9,1.7,3.5h-1c0.2-1.1,0.5-2.6-0.9-2.6c-1.2,0-4.2,1.8-5.1,6.2
		L329.8,365.7z"/>
	<path id="XMLID_59_" fill="#FFFFFF" stroke="#FFFFFF" stroke-width="0.85" stroke-miterlimit="10" d="M350.7,364.9
		c-1.5,0.6-2.8,1-4.3,1c-3.4,0-4-3-3.3-5.9c0.6-2.9,2.6-6,6-6c1.9,0,3.9,1.4,2.9,6.2h-8c-0.7,4,0.8,5,2.6,5c1.3,0,2.7-0.5,3.9-1.1
		L350.7,364.9z M351,359.2c0.5-2-0.1-4.4-2.4-4.4c-2.2,0-4.1,2.4-4.5,4.4H351z"/>
	<path id="XMLID_57_" fill="#FFFFFF" stroke="#FFFFFF" stroke-width="0.85" stroke-miterlimit="10" d="M381.7,352.2
		c-0.8-0.8-1.7-1.7-3.1-1.7c-1.6,0-3.1,1.1-3.5,2.7c-0.3,1.2,0.1,2,1.8,3.2l1.1,0.8c2.2,1.5,3.1,2.4,2.7,4.3
		c-0.6,2.7-2.7,4.3-5.4,4.3c-1.8,0-3.1-0.9-3.9-2.3l0.9-0.6c0.6,1.2,1.7,2.1,3.2,2.1c1.8,0,3.6-1.3,4-3.2c0.3-1.5,0.3-2-2.3-3.8
		l-1.3-0.9c-1.3-0.9-2.4-1.9-2-3.8c0.5-2.3,2.6-3.7,4.8-3.7c1.5,0,2.7,0.8,3.6,1.8L381.7,352.2z"/>
	<path id="XMLID_54_" fill="#FFFFFF" stroke="#FFFFFF" stroke-width="0.85" stroke-miterlimit="10" d="M386.9,359.9
		c1-4.5,3.6-6,5.7-6c1.9,0,4.1,1.3,3.1,6s-3.7,6-5.7,6C388.1,365.9,385.9,364.6,386.9,359.9z M394.7,359.9c0.5-2.2,0.5-5.1-2.3-5.1
		s-4,2.9-4.5,5.1c-0.5,2.3-0.5,5.1,2.3,5.1S394.2,362.1,394.7,359.9z"/>
	<path id="XMLID_52_" fill="#FFFFFF" stroke="#FFFFFF" stroke-width="0.85" stroke-miterlimit="10" d="M407.4,350.4H404l0.2-0.9h4.4
		l-3.4,16.1h-1L407.4,350.4z"/>
	<path id="XMLID_50_" fill="#FFFFFF" stroke="#FFFFFF" stroke-width="0.85" stroke-miterlimit="10" d="M424.4,354.2h1l-1.2,5.7
		c-0.4,2-0.8,3.9-0.8,5.8h-1l0.3-3.3l0,0c-0.8,1.7-3,3.5-4.8,3.5c-2.1,0-2.3-1.9-1.9-3.6l1.7-8.1h1l-1.6,7.6
		c-0.5,2.2-0.2,3.2,1.1,3.2c1.7,0,4.3-1.9,5.2-6.2L424.4,354.2z"/>
	<path id="XMLID_48_" fill="#FFFFFF" stroke="#FFFFFF" stroke-width="0.85" stroke-miterlimit="10" d="M439.2,355H435l-1.7,7.8
		c-0.2,1.1,0,2.2,1.4,2.2c1.3,0,2.4-1,3.1-2l0.9,0.2c-1,1.5-2.5,2.7-4.3,2.7c-1.5,0-2.7-0.7-2-3.6l1.5-7.2h-2.6l0.2-0.9h2.6l0.8-3.7
		h1l-0.8,3.7h4.2L439.2,355z"/>
	<path id="XMLID_45_" fill="#FFFFFF" stroke="#FFFFFF" stroke-width="0.85" stroke-miterlimit="10" d="M450.3,355H447l0.2-0.9h4.4
		l-2.4,11.5h-1L450.3,355z M452.8,350.8c-0.1,0.6-0.8,1.1-1.4,1.1c-0.6,0-1-0.5-0.9-1.1c0.1-0.6,0.7-1.1,1.4-1.1
		S452.9,350.2,452.8,350.8z"/>
	<path id="XMLID_42_" fill="#FFFFFF" stroke="#FFFFFF" stroke-width="0.85" stroke-miterlimit="10" d="M459.8,359.9
		c1-4.5,3.6-6,5.7-6c1.9,0,4.1,1.3,3.1,6s-3.7,6-5.7,6C461,365.9,458.8,364.6,459.8,359.9z M467.6,359.9c0.5-2.2,0.5-5.1-2.3-5.1
		s-4,2.9-4.5,5.1c-0.5,2.3-0.5,5.1,2.3,5.1C465.9,365,467.1,362.1,467.6,359.9z"/>
	<path id="XMLID_40_" fill="#FFFFFF" stroke="#FFFFFF" stroke-width="0.85" stroke-miterlimit="10" d="M474.5,365.7h-1l1.2-5.8
		c0.4-2,0.8-3.9,0.8-5.9h1l-0.3,3.3l0,0c0.8-1.7,3-3.4,4.8-3.4c2.1,0,2.3,1.8,1.9,3.5l-1.7,8.2h-1l1.6-7.7c0.3-1.3,0.7-3.2-1.1-3.2
		c-1.7,0-4.3,1.7-5.2,6.1L474.5,365.7z"/>
	<path id="XMLID_38_" fill="#FFFFFF" stroke="#FFFFFF" stroke-width="0.85" stroke-miterlimit="10" d="M496.8,356
		c-0.8-0.7-1.7-1.2-2.8-1.2c-1.2,0-2.5,0.9-2.7,2.1c-0.3,1.3,1.1,2,2,2.4c1.6,0.7,3.3,1.4,2.8,3.6c-0.4,1.9-2.3,3-4.1,3
		c-1.4,0-3.1-0.9-3.9-1.8l0.7-0.8c0.7,0.9,2.1,1.8,3.4,1.8c1.3,0,2.5-0.7,2.8-2.1c0.4-1.7-0.9-2.2-2.1-2.7c-1.5-0.6-3.2-1.3-2.7-3.4
		c0.3-1.6,2.3-2.9,4-2.9c1.3,0,2.3,0.5,3.2,1.2L496.8,356z"/>
</g>
<polygon id="naranja_cuadro" fill="#FF781D" points="312.5,334.6 429.8,334.6 444.4,272 327.1,272 "/>
<g id="Open">
	<path id="XMLID_33_" fill="#FFFFFF" d="M127.8,313.1c-0.8,3.2-1.8,5.9-3.1,8.1c-1.3,2.1-2.9,3.9-4.9,5.2c-2,1.3-4.4,2.2-7.2,2.8
		c-2.8,0.6-6.1,0.8-10,0.8h-42c-3.9,0-7.1-0.3-9.7-0.8c-2.6-0.6-4.5-1.5-5.9-2.8c-1.3-1.3-2.1-3-2.3-5.2c-0.2-2.1,0.1-4.8,0.9-8.1
		l8-32.4c0.8-3.2,1.8-5.9,3-8.1c1.2-2.1,2.8-3.9,4.8-5.2c2-1.3,4.4-2.2,7.2-2.8s6.1-0.8,10-0.8h42c3.9,0,7.1,0.3,9.7,0.8
		c2.6,0.6,4.5,1.5,5.9,2.8c1.3,1.3,2.1,3,2.3,5.2c0.2,2.1-0.1,4.8-0.9,8.1L127.8,313.1z M75,274c-1.4,0-2.4,0.2-3,0.7
		s-1,1.5-1.4,3.1l-9.3,38.1c-0.4,1.6-0.4,2.6-0.1,3.1c0.4,0.5,1.2,0.7,2.6,0.7h40.6c1.3,0,2.3-0.2,2.8-0.7c0.6-0.5,1-1.5,1.4-3.1
		l9.1-38.1c0.4-1.6,0.5-2.6,0.2-3.1s-1.1-0.7-2.5-0.7H75z"/>
	<path id="XMLID_30_" fill="#FFFFFF" d="M143.9,343.2c-0.1,0.4-0.4,0.7-0.8,1c-0.4,0.3-0.9,0.4-1.4,0.4H134c-0.5,0-1-0.1-1.2-0.4
		c-0.3-0.3-0.4-0.6-0.3-1l12.8-52.9c0.1-0.4,0.4-0.8,0.9-1.1c0.5-0.4,1-0.6,1.5-0.6h7.6c0.5,0,0.9,0.2,1.2,0.6
		c0.2,0.4,0.3,0.8,0.2,1.1L143.9,343.2z M163.4,294.9c-0.5,0-1-0.1-1.2-0.4c-0.3-0.3-0.4-0.6-0.3-1l0.8-3.4c0.1-0.4,0.4-0.7,0.8-1
		c0.4-0.3,0.9-0.4,1.4-0.4h18.9c2.5,0,4.6,0.2,6.2,0.5c1.6,0.3,2.9,0.9,3.7,1.7c0.8,0.8,1.3,1.9,1.5,3.2c0.2,1.3,0,3-0.5,5l-5,20.4
		c-0.5,2-1.1,3.7-1.9,5c-0.8,1.3-1.8,2.4-3,3.2c-1.2,0.8-2.7,1.4-4.4,1.7c-1.7,0.3-3.7,0.5-6.1,0.5h-19.6c-0.5,0-1-0.1-1.2-0.4
		c-0.3-0.3-0.4-0.6-0.3-1l0.8-3.4c0.1-0.4,0.4-0.7,0.8-1c0.4-0.3,0.9-0.4,1.4-0.4h18.9c0.9,0,1.5-0.1,1.8-0.4
		c0.3-0.3,0.6-0.9,0.9-1.9l5.8-23.9c0.2-1,0.3-1.6,0-1.9c-0.2-0.3-0.8-0.4-1.6-0.4h-18.6V294.9z"/>
	<path id="XMLID_28_" fill="#FFFFFF" d="M220.4,310.4c-0.5,0-1-0.1-1.2-0.4c-0.3-0.3-0.4-0.6-0.3-1l0.8-3.4c0.1-0.4,0.4-0.7,0.8-1
		c0.4-0.3,0.9-0.4,1.4-0.4h21.8l1.7-6.7c0.2-1,0.3-1.6,0-1.9c-0.2-0.3-0.8-0.4-1.7-0.4h-25.3c-0.9,0-1.5,0.1-1.8,0.4
		c-0.3,0.3-0.6,0.9-0.9,1.9l-5.9,23.8c-0.2,1-0.3,1.6,0,1.9c0.2,0.3,0.8,0.4,1.6,0.4H268c0.5,0,0.9,0.1,1.2,0.4
		c0.3,0.3,0.4,0.6,0.3,1l-0.9,3.4c-0.1,0.4-0.4,0.7-0.8,1c-0.4,0.3-0.9,0.4-1.4,0.4h-56.9c-2.4,0-4.4-0.2-6-0.5
		c-1.6-0.3-2.8-0.9-3.7-1.7c-0.8-0.8-1.3-1.9-1.4-3.2c-0.1-1.3,0.1-3,0.6-5l5-20.3c0.5-2,1.1-3.7,1.9-5c0.8-1.3,1.8-2.4,3-3.2
		s2.7-1.4,4.5-1.7c1.8-0.3,3.8-0.5,6.3-0.5h26.2c2.4,0,4.4,0.2,6,0.5c1.6,0.3,2.8,0.9,3.7,1.7c0.8,0.8,1.3,1.9,1.4,3.2
		c0.1,1.3-0.1,3-0.6,5l-2.4,9.8c-0.1,0.4-0.4,0.7-0.8,1s-0.9,0.4-1.4,0.4h-31.4V310.4z"/>
	<path id="XMLID_26_" fill="#FFFFFF" d="M246.5,330c-0.5,0-0.9-0.1-1.2-0.4c-0.3-0.3-0.4-0.6-0.3-1l0.7-3.3c0.1-0.4,0.4-0.7,0.8-1
		c0.4-0.3,0.9-0.4,1.4-0.4H260l8.1-33.4c0.1-0.4,0.4-0.8,0.8-1.1c0.4-0.4,0.9-0.6,1.4-0.6h37.2c2.4,0,4.4,0.1,6,0.4
		c1.6,0.3,2.8,0.8,3.7,1.6c0.9,0.8,1.4,1.8,1.5,3.1c0.1,1.3,0,3-0.5,5l-7.4,29.8c-0.1,0.4-0.3,0.7-0.7,1c-0.4,0.3-0.9,0.4-1.4,0.4
		H301c-0.5,0-0.9-0.1-1.2-0.4c-0.3-0.3-0.4-0.6-0.3-1l7.7-31.3c0.2-1,0.3-1.6,0-1.9c-0.2-0.3-0.8-0.4-1.6-0.4h-27l-8.1,33.5
		c-0.1,0.4-0.4,0.7-0.8,1c-0.4,0.3-0.9,0.4-1.4,0.4H246.5z"/>
</g>
<g id="FS">
	<path id="XMLID_22_" fill="#FFFFFF" d="M317.4,329.1l8.3-39.2c0.3-1.3,0.8-2.6,1.5-3.8c0.8-1.2,1.7-2.2,2.7-3.1
		c1.1-0.9,2.2-1.6,3.6-2.1c1.3-0.5,2.6-0.8,4-0.8h42.4l-2,9.8h-32.6c-0.9,0-1.7,0.3-2.5,0.9c-0.8,0.6-1.2,1.4-1.5,2.3l-7.6,35.9
		h-16.3V329.1z M341,309.5l2.1-9.8h32.6l-2.1,9.8H341z"/>
	<path id="XMLID_20_" fill="#FFFFFF" d="M401.4,290.8c-0.8,0.6-1.2,1.4-1.5,2.3l-0.7,3.3c-0.2,0.9-0.1,1.7,0.5,2.3
		c0.5,0.6,1.2,0.9,2.2,0.9h22.8c1.3,0,2.6,0.3,3.6,0.8c1.1,0.5,2,1.2,2.6,2.1c0.7,0.9,1.1,1.9,1.4,3.1c0.3,1.2,0.3,2.5,0,3.8
		l-2.1,9.8c-0.3,1.4-0.8,2.6-1.6,3.8c-0.8,1.2-1.7,2.2-2.7,3.1c-1.1,0.9-2.2,1.6-3.6,2.1c-1.3,0.5-2.6,0.8-4,0.8H376l2.1-9.8h32.6
		c0.9,0,1.7-0.3,2.5-0.9s1.2-1.4,1.5-2.3l0.7-3.3c0.2-0.9,0.1-1.7-0.4-2.3c-0.5-0.6-1.2-0.9-2.1-0.9H390c-1.3,0-2.6-0.3-3.6-0.8
		c-1.1-0.5-2-1.2-2.7-2.1s-1.2-1.9-1.4-3.1c-0.3-1.2-0.2-2.5,0.1-3.8l2.1-9.8c0.3-1.3,0.8-2.6,1.5-3.8c0.8-1.2,1.7-2.2,2.7-3.1
		c1.1-0.9,2.2-1.6,3.6-2.1c1.3-0.5,2.6-0.8,4-0.8h42.4l-2,9.8h-32.6C403,289.9,402.2,290.2,401.4,290.8z"/>
</g>
<g id="srl">
	<path id="XMLID_16_" fill="#FFFFFF" d="M453,314.9c0.7,0,1.2,0.2,1.5,0.7c0.4,0.5,0.4,1.1,0.3,1.7l-0.2,0.8h-9.8l-0.9,3.3h7.4
		c0.7,0,1.2,0.2,1.5,0.7c0.4,0.5,0.4,1.1,0.3,1.7l-1.3,4.9c-0.2,0.7-0.6,1.3-1.2,1.7c-0.6,0.5-1.2,0.7-1.9,0.7h-8.2
		c-0.7,0-1.2-0.2-1.6-0.7c-0.4-0.5-0.4-1.1-0.3-1.7l0.2-0.8h9.8l0.9-3.3h-7.4c-0.7,0-1.2-0.2-1.6-0.7c-0.4-0.5-0.4-1.1-0.3-1.7
		l1.3-4.9c0.2-0.7,0.6-1.3,1.2-1.7c0.6-0.5,1.3-0.7,1.9-0.7H453z"/>
	<path id="XMLID_14_" fill="#FFFFFF" d="M453.6,328.1h3.3l-0.9,3.3h-3.3L453.6,328.1z"/>
	<path id="XMLID_11_" fill="#FFFFFF" d="M472.7,314.9c0.7,0,1.2,0.2,1.5,0.7c0.4,0.5,0.4,1.1,0.3,1.7l-1.3,4.9
		c-0.2,0.7-0.6,1.3-1.2,1.7c-0.6,0.5-1.3,0.7-1.9,0.7h-0.8l3.2,6.6h-4.1l-4.8-9.8l-2.6,9.8h-3.3l4.4-16.4h10.6V314.9z M463.6,321.5
		h6.6l0.9-3.3h-6.6L463.6,321.5z"/>
	<path id="XMLID_9_" fill="#FFFFFF" d="M474.1,328.1h3.3l-0.9,3.3h-3.3L474.1,328.1z"/>
	<path id="XMLID_7_" fill="#FFFFFF" d="M482.6,314.9h3.3l-3.5,13.1h9.8l-0.9,3.3h-13.1L482.6,314.9z"/>
	<path id="XMLID_5_" fill="#FFFFFF" d="M493.8,328.1h3.3l-0.9,3.3h-3.3L493.8,328.1z"/>
</g>
</svg>
