<?xml version="1.0" encoding="utf-8"?>
<!-- Generator: Adobe Illustrator 19.0.0, SVG Export Plug-In . SVG Version: 6.00 Build 0)  -->
<svg version="1.1" id="Capa_1" xmlns="http://www.w3.org/2000/svg" xmlns:xlink="http://www.w3.org/1999/xlink" x="0px" y="0px"
	 width="188px" height="188px" viewBox="0 0 188 188" enable-background="new 0 0 188 188" xml:space="preserve">
<path id="check_pc" fill="#f7925d" d="M130.539,72.281c4.507-4.509,8.703-8.756,12.969-12.932c0.744-0.729,1.71-1.432,2.691-1.675
	c1.802-0.446,3.347,0.253,4.34,1.899c0.953,1.578,0.755,3.114-0.301,4.561c-0.318,0.436-0.714,0.819-1.097,1.203
	c-4.946,4.952-9.887,9.909-14.848,14.846c-2.695,2.682-4.644,2.667-7.313-0.002c-2.354-2.354-4.717-4.701-7.047-7.079
	c-1.936-1.976-2.069-4.425-0.389-6.149c1.682-1.726,4.166-1.667,6.143,0.258C127.291,68.772,128.788,70.442,130.539,72.281z"/>
<g id="Pc-monitor">
	<path id="XMLID_68_" fill="#838992" d="M164.062,107.037c4.143,0,7.501-3.359,7.501-7.502c0-3.986,0-6.973,0-7.424
		c0.006-18.107,0.014-36.213,0.018-54.32c0.001-3.775-1.352-5.108-5.176-5.109c-21.17-0.008-42.339-0.015-63.509-0.019
		c-3.741-0.001-5.237,1.449-5.237,5.134c0,21.374,0.007,42.748,0.023,64.121c0.003,3.591,1.526,5.118,5.064,5.117L164.062,107.037z
		 M160.31,98.817c-17.631,0.009-35.263-0.001-52.894-0.01c-0.392,0-0.785-0.076-1.283-0.127c0-19.256,0-38.422,0-57.769
		c19.142,0,38.053,0,57.116,0c0.047,0.536,0.131,1.051,0.131,1.567c0.011,17.7,0.014,35.399,0.016,53.098
		C163.396,98.46,163.091,98.816,160.31,98.817z"/>
	<path id="XMLID_235_" fill="#f7925d" d="M39.623,0c0.936,1.098,2.226,2.058,2.722,3.328c0.702,1.799-0.624,3.834-2.473,4.579
		c-1.744,0.702-3.806,0.078-4.882-1.48c-1.103-1.597-0.91-3.85,0.468-5.243c0.413-0.417,0.87-0.791,1.306-1.185
		C37.717,0,38.67,0,39.623,0z"/>
	<path id="XMLID_211_"  d="M53.105,63.349c10.62,0,21.24-0.005,31.86,0.004c2.824,0.002,4.604,1.563,4.64,4.013
		c0.036,2.467-1.749,4.142-4.51,4.143c-21.376,0.01-42.752,0.012-64.128,0.001c-2.793-0.001-4.493-1.446-4.618-3.811
		c-0.138-2.619,1.607-4.341,4.489-4.344C31.593,63.341,42.349,63.349,53.105,63.349z"/>
	<path id="XMLID_210_" d="M142.158,119.335c-0.034-2.378,1.677-4.13,4.041-4.14c2.361-0.01,4.128,1.744,4.115,4.087
		c-0.012,2.24-1.731,4.008-3.957,4.07C144.019,123.416,142.191,121.667,142.158,119.335z"/>
	<path id="XMLID_61_" fill="#f7925d"  d="M89.643,37.158c-0.052-3.025-1.637-4.469-4.626-4.47c-21.377-0.008-42.754-0.009-64.132,0
		c-3,0.001-4.528,1.524-4.539,4.502c-0.019,5.038-0.011,10.076-0.003,15.114c0.005,3.503,1.413,4.881,4.984,4.883
		c10.552,0.004,21.105,0.001,31.657,0.001c10.62,0,21.241,0.005,31.861-0.003c3.157-0.002,4.744-1.399,4.798-4.506
		C89.734,47.506,89.732,42.33,89.643,37.158z M83.851,51.485H22.169V38.821h61.682V51.485z"/>
	<path id="XMLID_56_" fill="#838992" d="M178.509,0H55.146c-0.799,1.036-1.97,1.96-2.324,3.131c-0.846,2.801,1.252,5.051,4.427,5.051
		c13.2,0,26.4-0.012,39.6-0.013c25.652-0.002,51.303-0.001,76.955-0.001c3.279,0,5.938,2.66,5.932,5.94
		c-0.001,0.666,0,1.333,0,2.116H8.189c0-1.522-0.092-3.002,0.021-4.467c0.17-2.202,1.635-3.51,3.954-3.571
		c2.244-0.058,4.49-0.001,6.736-0.001c2.924-0.001,4.555-0.985,5.107-3.071C24.529,3.144,23.671,1.559,21.241,0H9.395
		C4.612,1.48,1.484,4.616,0,9.395v120.913c0.906,1.72,1.58,3.625,2.768,5.121c2.371,2.986,5.626,4.38,9.483,4.274
		c0.621-0.017,21.524,0.006,43.558,0.034l-2.537,23.62h-5.288c-2.226,0-4.03,1.804-4.03,4.03c0,2.224,1.799,4.028,4.023,4.03
		c20.233,0.019,64.872,0.156,74.257,0.135c2.519-0.006,4.393-1.851,4.344-4.149c-0.048-2.237-1.867-3.962-4.282-4.019
		c-1.354-0.032-2.71-0.006-4.321-0.006c-0.913-7.892-1.815-15.686-2.723-23.531c0.344-0.058,0.606-0.14,0.869-0.14
		c9.742-0.005,43.716-0.006,62.22-0.006c5.199,0,9.417-4.204,9.438-9.403l0.211-115.625C187.757,7.364,185.602,2.356,178.509,0z
		 M61.636,163.357l2.535-23.609c20.625,0.027,40.12,0.055,42.735,0.055c0.903,7.826,1.821,15.611,2.738,23.554H61.636z
		 M179.625,121.907c0,5.212-4.221,9.437-9.433,9.44c-17.568,0.01-155.512,0.192-155.512,0.192v-0.114
		c-5.953,0.664-7.059-1.601-6.327-7.932c2.083,0,107.434-0.126,119.21-0.145c2.317-0.004,3.943-1.285,4.328-3.266
		c0.383-1.967-0.627-3.973-2.496-4.622c-0.804-0.28-1.714-0.354-2.586-0.356c-11.708-0.023-115.755-0.055-118.478-0.055V24.633
		h171.293V121.907z"/>
</g>
<g id="celular">
<animateTransform 
attributeName="transform" 
additive="sum" 
type="translate" 
repeatCount="indefinite" 
dur="1.3s" 
keyTimes="0;.359;.744;1" 
values="1,1;1,2;1,1;1,5"/>

<animateTransform 
attributeName="transform" 
additive="sum" 
type="translate" 
repeatCount="indefinite" 
dur="1.3s" 
keyTimes="0;.359;.744;1" 
values="1,5;1,1;1,2;1,1"/>

	<path id="XMLID_54_" fill="#f7925d" d="M23.514,87.655c0.001-3.235,1.323-4.552,4.563-4.553c13.575-0.002,27.15,0.003,40.725,0.018
		c3.148,0.003,4.409,1.286,4.41,4.451c0.005,14.051,0.002,28.102,0.002,42.154c0,13.873,0.002,27.745-0.001,41.618
		c-0.001,3.392-1.233,4.643-4.593,4.645c-13.515,0.005-27.031,0.006-40.546-0.001c-3.231-0.002-4.558-1.329-4.559-4.56
		C23.509,143.502,23.508,115.579,23.514,87.655z"/>
	<path id="XMLID_51_" fill="#000000" d="M16.369,124.597c-0.005,15.891-0.026,31.781-0.005,47.672c0.007,5.338,3.331,9.465,8.505,10.646
		c0.857,0.196,1.768,0.206,2.654,0.206c13.748,0.012,27.496,0.009,41.245,0.008c7.255-0.001,11.69-4.33,11.754-11.6
		c0.056-6.308,0.088-81.673-0.216-86.118c-0.366-5.342-4.974-9.433-10.295-9.443c-14.407-0.027-28.814-0.03-43.22,0
		c-5.7,0.012-10.377,4.772-10.416,10.514c-0.031,4.643-0.024,9.286-0.039,13.929C16.335,100.518,16.37,123.905,16.369,124.597z
		 M23.514,87.655c0.001-3.235,1.323-4.552,4.563-4.553c13.575-0.002,27.15,0.003,40.725,0.018c3.148,0.003,4.409,1.286,4.41,4.451
		c0.005,14.051,0.002,28.102,0.002,42.154c0,13.873,0.002,27.745-0.001,41.618c-0.001,3.392-1.233,4.643-4.593,4.645
		c-13.515,0.005-27.031,0.006-40.546-0.001c-3.231-0.002-4.558-1.329-4.559-4.56C23.509,143.502,23.509,115.579,23.514,87.655z"/>
</g>
<path id="check_celularv" fill="#ffffff" d="M44.801,128.896c4.077-4.08,7.829-7.884,11.639-11.629c2.273-2.234,5.693-1.442,6.225,1.532
	c0.187,1.046-0.271,2.586-1.006,3.355c-4.598,4.811-9.328,9.499-14.079,14.161c-1.729,1.697-3.638,1.612-5.363-0.075
	c-2.294-2.244-4.566-4.512-6.805-6.812c-1.582-1.625-1.619-3.795-0.175-5.245c1.452-1.459,3.581-1.449,5.242,0.157
	C41.928,125.741,43.261,127.263,44.801,128.896z">

	<animateTransform 
attributeName="transform" 
additive="sum" 
type="translate" 
repeatCount="indefinite" 
dur="1.3s" 
keyTimes="0;.359;.744;1" 
values="1,5;1,1;1,1;1,1"/>

<animateTransform 
attributeName="transform" 
additive="sum" 
type="translate" 
repeatCount="indefinite" 
dur="1.3s" 
keyTimes="0;.359;.744;1" 
values="1,1;1,1;1,1;1,5"/>
</path>
</svg>
