<?xml version="1.0" encoding="utf-8"?>
<!-- Generator: Adobe Illustrator 19.0.0, SVG Export Plug-In . SVG Version: 6.00 Build 0)  -->
<svg version="1.1" id="Capa_1" xmlns="http://www.w3.org/2000/svg" xmlns:xlink="http://www.w3.org/1999/xlink" x="0px" y="0px"
	 width="188px" height="188px" viewBox="0 0 188 188" enable-background="new 0 0 188 188" xml:space="preserve">
<g id="burbuja_texto">
<animateTransform 
attributeName="transform" 
additive="sum" 
type="translate" 
repeatCount="indefinite" 
dur="1.5s" 
keyTimes="0;.359;.744;1" 
values="1,1;1,1;1,3;1,1"/>

<animateTransform 
attributeName="transform" 
additive="sum" 
type="translate" 
repeatCount="indefinite" 
dur="1.5s" 
keyTimes="0;.359;.744;1" 
values="1,1;-5,1;1,1;1,1"/>

	<path id="XMLID_68_" fill="#f7925d" d="M171,9.89h-40.095c-8.513,0.01-15.411,6.909-15.421,15.421v30.842
		c0.01,8.513,6.909,15.411,15.421,15.421h6.168v12.337c0,1.247,0.751,2.372,1.903,2.85c0.374,0.156,0.776,0.236,1.181,0.234
		c0.818,0,1.602-0.325,2.181-0.904l14.517-14.517H171c8.513-0.01,15.411-6.909,15.421-15.421V25.311
		C186.411,16.799,179.512,9.9,171,9.89z M180.252,56.154c0,5.11-4.143,9.253-9.253,9.253h-15.421c-0.818,0-1.602,0.325-2.181,0.904
		l-10.156,10.156v-7.976c0-1.703-1.381-3.084-3.084-3.084h-9.253c-5.11,0-9.253-4.143-9.253-9.253V25.311
		c0-5.11,4.143-9.253,9.253-9.253H171c5.11,0,9.253,4.143,9.253,9.253V56.154z"/>
	<rect id="XMLID_49_" x="130.905" y="25.311" fill="#010202" width="21.59" height="6.168"/>
	<rect id="XMLID_48_" x="158.663" y="25.311" fill="#010202" width="12.337" height="6.168"/>
	<rect id="XMLID_47_" x="130.905" y="37.648" fill="#010202" width="40.095" height="6.168"/>
	<rect id="XMLID_46_" x="130.905" y="49.985" fill="#010202" width="21.59" height="6.168"/>
</g>
<g id="mujersuela">
	<path id="XMLID_53_" fill="#838992" d="M87.725,99.333h-3.084v6.168h3.084c11.918-0.014,21.576-9.672,21.59-21.59V49.985
		c0-25.551-20.713-46.263-46.263-46.263S16.788,24.435,16.788,49.985v33.927c0.014,11.918,9.672,21.576,21.59,21.59h3.084v-6.168
		h-3.084c-8.513-0.01-15.411-6.909-15.421-15.421V49.985c0-22.144,17.951-40.095,40.095-40.095s40.095,17.951,40.095,40.095v33.927
		C103.136,92.424,96.238,99.323,87.725,99.333z"/>
	<path id="XMLID_55_" fill="#838992" d="M7.535,133.259c0.01-8.513,6.909-15.411,15.421-15.421h9.814l27.774,38.806
		c0.571,0.798,1.487,1.276,2.467,1.289h0.04c0.971,0,1.885-0.457,2.467-1.234l29.3-38.861h8.327
		c8.513,0.01,15.411,6.909,15.421,15.421v24.674c0.002,1.703,1.384,3.083,3.087,3.081c1.119-0.001,2.149-0.608,2.693-1.586
		l14.539-26.17h17.682l-30.071,55.516h7.017l30.084-55.516h1.234c11.918-0.014,21.576-9.672,21.59-21.59
		c0-1.703-1.381-3.084-3.084-3.084h-27.758c-11.572,0.014-21.075,9.148-21.546,20.711l-9.296,16.735v-12.772
		c-0.014-11.918-9.672-21.576-21.59-21.59H91.874l-0.083-0.065l-0.056,0.065h-7.094c-3.407,0-6.168-2.762-6.168-6.168v-7.257
		c9.53-5.502,15.407-15.665,15.421-26.669V46.901c-0.005-5.11-1.276-10.14-3.701-14.638c-0.777-1.431-2.532-2.012-4.009-1.326
		L33.98,55.5c-1.081,0.509-1.771,1.596-1.77,2.791v13.284C32.224,82.579,38.1,92.742,47.63,98.244v7.257
		c0,3.407-2.762,6.168-6.168,6.168H22.957c-11.918,0.014-21.576,9.672-21.59,21.59v55.516h6.168V133.259z M155.579,114.754h24.365
		c-1.475,7.176-7.787,12.329-15.113,12.337h-24.365C141.94,119.915,148.253,114.762,155.579,114.754z M63.116,149.643l-9.518-13.299
		H73.14L63.116,149.643z M38.378,71.575V60.249l47.624-22.41c1.139,2.885,1.724,5.959,1.724,9.061v24.674
		c0,13.627-11.047,24.674-24.674,24.674S38.378,85.202,38.378,71.575z M41.462,117.838c6.813,0,12.337-5.523,12.337-12.337v-4.506
		c6.023,1.896,12.483,1.896,18.505,0v4.506c0,6.814,5.523,12.337,12.337,12.337h2.467l-9.302,12.337H49.173l-8.83-12.337H41.462z"/>
	<path id="XMLID_52_" fill="#838992" d="M29.039,145.529l-5.209-3.306l-2.255,3.553c-6.819,10.745-6.313,24.581,1.274,34.799v8.201
		h6.168v-9.253c0-0.701-0.238-1.38-0.675-1.928c-6.557-8.197-7.183-19.654-1.558-28.517L29.039,145.529z"/>
	<path id="XMLID_20_" fill="#838992" d="M97.086,179.523v9.253h6.168v-8.201c7.586-10.218,8.093-24.054,1.274-34.799l-2.255-3.553
		l-5.209,3.306l2.255,3.553c5.626,8.861,5,20.318-1.558,28.514C97.324,178.142,97.086,178.822,97.086,179.523z"/>
</g>
</svg>
