<?xml version="1.0" encoding="utf-8"?>
<!-- Generator: Adobe Illustrator 19.0.0, SVG Export Plug-In . SVG Version: 6.00 Build 0)  -->
<svg version="1.1" id="Capa_1" xmlns="http://www.w3.org/2000/svg" xmlns:xlink="http://www.w3.org/1999/xlink" x="0px" y="0px"
	 width="188px" height="188px" viewBox="0 0 188 188" enable-background="new 0 0 188 188" xml:space="preserve">
<g id="XMLID_46_">
	<rect id="XMLID_69_" x="90.858" y="156.577" fill="#010202" width="6.285" height="6.285"/>
	<g id="XMLID_54_">
		<path id="XMLID_63_" fill="#838992" d="M169.415,147.15V52.881c0-1.735-1.407-3.142-3.142-3.142H21.727
			c-1.735,0-3.142,1.407-3.142,3.142v94.269c0,1.735,1.407,3.142,3.142,3.142h144.546
			C168.008,150.292,169.415,148.885,169.415,147.15z M163.131,144.008H24.869V56.023h138.261V144.008z"/>
		<path id="XMLID_76_" fill="#838992" d="M185.127,162.862h-3.142V49.739c0-6.942-5.627-12.569-12.569-12.569H18.585
			c-6.942,0-12.569,5.627-12.569,12.569v113.123H2.873c-1.735,0-3.142,1.407-3.142,3.142v9.427C-0.269,182.373,5.358,188,12.3,188
			h163.4c6.942,0,12.569-5.627,12.569-12.569v-9.427C188.269,164.268,186.862,162.862,185.127,162.862z M12.3,49.739
			c0-3.471,2.814-6.285,6.285-6.285h150.831c3.471,0,6.285,2.814,6.285,6.285v113.123h-53.419c-0.833-0.001-1.632,0.329-2.222,0.918
			l-5.364,5.367h-41.39l-5.364-5.367c-0.59-0.588-1.389-0.918-2.222-0.918H12.3V49.739z M181.984,175.431
			c0,3.471-2.814,6.285-6.285,6.285H12.3c-3.471,0-6.285-2.814-6.285-6.285v-6.285h58.403l5.364,5.364
			c0.589,0.589,1.388,0.921,2.222,0.921h43.992c0.833,0,1.632-0.331,2.222-0.921l5.364-5.364h58.403V175.431z"/>
	</g>
</g>
<g id="ventana-web">
 <animateTransform 
attributeName="transform" 
additive="sum" 
type="translate" 
repeatCount="indefinite" 
dur="1.3s" 
keyTimes="0;.359;.744;1" 
values="1,1;1,1;1,1;1,10"/>

<animateTransform 
attributeName="transform" 
additive="sum" 
type="translate" 
repeatCount="indefinite" 
dur="1.3s" 
keyTimes="0;.359;.744;1" 
values="1,10;1,1;1,1;1,1"/>
	<g id="botones_top" >
		<rect id="XMLID_68_" x="54.096" y="19.05" fill="#4a4a4a" width="5.7" height="5.7"/>
		<rect id="XMLID_67_" x="65.496" y="19.05" fill="#f7925d" width="5.7" height="5.7"/>
		<rect id="XMLID_66_" x="76.896" y="19.05" fill="#4a4a4a" width="5.7" height="5.7"/>
	</g>
	<path id="XMLID_75_" fill="#ffffff" d="M139.606,118.8c0,3.148-2.552,5.7-5.7,5.7h-79.8c-3.148,0-5.7-2.552-5.7-5.7l-0.008-82.65
		h91.2L139.606,118.8z"/>
	<path id="XMLID_61_" fill="#f7925d" d="M145.296,19.05c0-6.296-5.104-11.4-11.4-11.4h-79.8c-6.296,0-11.4,5.104-11.4,11.4
		l0.008,99.75c0,6.296,5.104,11.4,11.4,11.4h79.8c6.296,0,11.4-5.104,11.4-11.4L145.296,19.05z M48.396,19.05
		c0-3.148,2.552-5.7,5.7-5.7h79.8c3.148,0,5.7,2.552,5.7,5.7v11.4h-91.2V19.05z M139.604,118.8c0,3.148-2.552,5.7-5.7,5.7h-79.8
		c-3.148,0-5.7-2.552-5.7-5.7l-0.008-82.65h91.2L139.604,118.8z">
		</path>
	<rect id="XMLID_56_" x="56.95" y="93.84" fill="#4a4a4a" width="74.1" height="5.7"/>
	<rect id="XMLID_55_" x="56.95" y="105.24" fill="#4a4a4a" width="68.4" height="5.7"/>
	<rect id="codigo" x="74.05" y="82.44" fill="#4a4a4a" width="57" height="5.7"/>
	<rect id="XMLID_53_" x="62.65" y="82.44" fill="#4a4a4a" width="5.7" height="5.7"/>
	<path id="XMLID_52_" fill="#4a4a4a" d="M80.89,67.62l3.42-4.56l-8.359-6.27l8.359-6.27l-3.42-4.56l-11.4,8.55
		c-1.259,0.944-1.514,2.731-0.57,3.99c0.162,0.216,0.354,0.408,0.57,0.57L80.89,67.62z"/>
	<path id="XMLID_51_" fill="#4a4a4a" d="M107.11,67.62l11.4-8.55c1.259-0.944,1.514-2.731,0.57-3.99
		c-0.162-0.216-0.354-0.408-0.57-0.57l-11.4-8.55l-3.42,4.56l8.359,6.27l-8.359,6.27L107.11,67.62z"/>
	
		<rect id="XMLID_50_" x="78.655" y="53.94" transform="matrix(-0.3715 0.9284 -0.9284 -0.3715 181.648 -9.3882)" fill="#f7925d" width="30.694" height="5.7"/>
</g>
</svg>
