<?xml version="1.0" encoding="utf-8"?>
<!-- Generator: Adobe Illustrator 19.0.0, SVG Export Plug-In . SVG Version: 6.00 Build 0)  -->
<svg version="1.1" id="Capa_1" xmlns="http://www.w3.org/2000/svg" xmlns:xlink="http://www.w3.org/1999/xlink" x="0px" y="0px"
	 width="188px" height="188px" viewBox="0 0 188 188" enable-background="new 0 0 188 188" xml:space="preserve">
<g id="laptop">
	<path id="XMLID_81_" fill="#838992" d="M184.12,159.008h-6.248V68.41c-0.011-8.623-6.997-15.61-15.62-15.62H24.793
		c-8.623,0.011-15.61,6.997-15.62,15.62v90.598H2.925c-1.725,0-3.124,1.399-3.124,3.124v6.248
		c0.014,12.072,9.796,21.855,21.868,21.868h143.707c12.072-0.014,21.855-9.796,21.868-21.868v-6.248
		C187.244,160.407,185.846,159.008,184.12,159.008z M15.421,68.41c0-5.176,4.196-9.372,9.372-9.372h137.459
		c5.176,0,9.372,4.196,9.372,9.372v90.598h-6.248V68.41c0-1.725-1.399-3.124-3.124-3.124H24.793c-1.725,0-3.124,1.399-3.124,3.124
		v90.598h-6.248V68.41z M159.128,71.535v87.474H27.917V71.535H159.128z M180.996,168.381c-0.011,8.623-6.997,15.61-15.62,15.62
		H21.669c-8.623-0.011-15.61-6.997-15.62-15.62v-3.124h174.948V168.381z"/>
	<path id="XMLID_78_"  fill="#4a4a4a" d="M102.895,168.381H84.15c-1.725,0-3.124,1.399-3.124,3.124s1.399,3.124,3.124,3.124h18.744
		c1.725,0,3.124-1.399,3.124-3.124S104.62,168.381,102.895,168.381L102.895,168.381z M102.895,168.381"/>
</g>
<g id="Manito">
<animateTransform 
attributeName="transform" 
additive="sum" 
type="translate" 
repeatCount="indefinite" 
dur="1.3s" 
keyTimes="0;.359;.744;1" 
values="1,1;1,1;1,1;1,10"/>

<animateTransform 
attributeName="transform" 
additive="sum" 
type="translate" 
repeatCount="indefinite" 
dur="1.3s" 
keyTimes="0;.359;.744;1" 
values="1,10;1,1;1,1;1,1"/>


	<path id="fondo-blanco" fill="#FFFFFF" d="M62.005,43.891h9.206v3.069c0,1.695,1.374,3.069,3.069,3.069
		c1.695,0,3.069-1.374,3.069-3.069v-3.069h42.959v3.069c0,1.695,1.374,3.069,3.069,3.069s3.069-1.374,3.069-3.069v-3.069h9.206
		v71.911l-22.609,7.871c-1.596,0.56-2.438,2.306-1.882,3.903c0.556,1.599,2.3,2.445,3.899,1.894l25.755-8.957
		c1.597-0.428,3.247,0.488,3.728,2.07c0.075,0.28,0.118,0.57,0.132,0.858c-0.003,1.401-0.943,2.627-2.296,2.992
		c-0.135,0.035-0.268,0.079-0.399,0.132L101.03,143.82c-1.693,0.784-3.585,1.034-5.424,0.718L52.8,136.471v-16.938l15.199-6.72
		c2.078-0.776,4.366-0.776,6.444,0l25.618,9.512c1.654,0.387,2.68,2.039,2.294,3.693c-0.386,1.653-2.039,2.679-3.693,2.294
		l-20.086-6.81c-1.609-0.542-3.355,0.324-3.897,1.933c-0.542,1.611,0.324,3.355,1.933,3.897l20.275,6.843
		c4.82,1.206,9.727-1.632,11.086-6.411c1.36-4.78-1.319-9.775-6.052-11.288l-25.342-9.414c-3.521-1.295-7.392-1.266-10.893,0.082
		l-3.683,1.627L62.005,43.891z"/>
	<path id="mano-bolsa" fill="#f7925d" d="M55.868,111.463l-3.069,1.359v-1.423c0-5.084-4.122-9.206-9.206-9.206H27.917v6.137h15.677
		c1.695,0,3.069,1.374,3.069,3.069v30.685c0,1.695-1.374,3.069-3.069,3.069H27.917c0,1.117,0,5.302,0,6.137h15.677
		c4.831-0.021,8.822-3.773,9.144-8.591l41.768,7.87c0.89,0.156,1.792,0.235,2.696,0.235c2.178,0.005,4.332-0.464,6.311-1.374
		l40.67-17.152c3.924-1.16,6.62-4.759,6.626-8.851c-0.008-0.799-0.111-1.594-0.307-2.369c-1.079-3.935-4.634-6.677-8.714-6.723
		V40.822c0-1.695-1.374-3.069-3.069-3.069h-12.274v-6.137C126.444,16.364,114.081,4,98.828,4C83.575,4,71.211,16.364,71.211,31.617
		v6.137H58.937c-1.695,0-3.069,1.374-3.069,3.069V111.463z M77.348,31.617c0-11.864,9.616-21.48,21.48-21.48
		c11.864,0,21.48,9.616,21.48,21.48v6.137H77.348V31.617z M67.998,112.813c2.078-0.776,4.366-0.776,6.444,0l25.618,9.512
		c1.654,0.387,2.68,2.039,2.294,3.693c-0.386,1.653-2.039,2.679-3.693,2.294l-20.086-6.81c-1.609-0.542-3.355,0.324-3.897,1.933
		c-0.542,1.611,0.324,3.355,1.933,3.897l20.275,6.843c4.82,1.206,9.727-1.632,11.086-6.411c1.36-4.78-1.319-9.775-6.052-11.288
		l-25.342-9.414c-3.521-1.295-7.392-1.266-10.893,0.082l-3.683,1.627l0.003-64.881h9.206v3.069c0,1.695,1.374,3.069,3.069,3.069
		c1.695,0,3.069-1.374,3.069-3.069v-3.069h42.959v3.069c0,1.695,1.374,3.069,3.069,3.069c1.695,0,3.069-1.374,3.069-3.069v-3.069
		h9.206v71.911l-22.609,7.871c-1.596,0.56-2.438,2.306-1.882,3.903c0.556,1.599,2.3,2.445,3.899,1.894l25.755-8.957
		c1.597-0.428,3.247,0.488,3.728,2.071c0.075,0.28,0.118,0.57,0.132,0.858c-0.003,1.401-0.943,2.627-2.296,2.992
		c-0.135,0.035-0.268,0.079-0.399,0.132L101.03,143.82c-1.693,0.784-3.585,1.034-5.424,0.718L52.8,136.471v-16.938L67.998,112.813z"
		/>
	<g id="porcentaje">
		<path id="linea"  fill="#f7925d" d="M78.335,104.445c1.245,1.151,3.186,1.076,4.336-0.168l36.822-39.891c1.151-1.247,1.074-3.189-0.171-4.339
			c-1.247-1.151-3.189-1.074-4.339,0.171l-36.822,39.891C77.012,101.355,77.09,103.296,78.335,104.445L78.335,104.445z
			 M78.335,104.445"/>
		<path id="redondo_top" fill="#4a4a4a" d="M83.485,80.713c6.778,0,12.274-5.496,12.274-12.274c0-6.778-5.496-12.274-12.274-12.274
			s-12.274,5.496-12.274,12.274C71.211,75.218,76.707,80.713,83.485,80.713L83.485,80.713z M83.485,62.302
			c3.389,0,6.137,2.748,6.137,6.137c0,3.389-2.748,6.137-6.137,6.137c-3.389,0-6.137-2.748-6.137-6.137
			C77.348,65.05,80.096,62.302,83.485,62.302L83.485,62.302z M83.485,62.302"/>
		<path id="redondo_bot" fill="#4a4a4a" d="M101.896,96.056c0,6.778,5.496,12.274,12.274,12.274c6.778,0,12.274-5.496,12.274-12.274
			c0-6.778-5.496-12.274-12.274-12.274C107.392,83.782,101.896,89.278,101.896,96.056L101.896,96.056z M120.307,96.056
			c0,3.389-2.748,6.137-6.137,6.137c-3.389,0-6.137-2.748-6.137-6.137s2.748-6.137,6.137-6.137
			C117.559,89.919,120.307,92.667,120.307,96.056L120.307,96.056z M120.307,96.056"/>
	</g>
	<path id="boton" d="M40.526,111.399c-1.695,0-3.069,1.374-3.069,3.069v3.069c0,1.695,1.374,3.069,3.069,3.069
		c1.695,0,3.069-1.374,3.069-3.069v-3.069C43.594,112.773,42.22,111.399,40.526,111.399L40.526,111.399z"/>
</g>
</svg>
